<svg width="150" height="150" viewBox="0 0 150 150" fill="none" xmlns="http://www.w3.org/2000/svg">
<rect width="150" height="150" fill="#D1D5DB"/>
<path d="M43.2 113C40.9333 113 39.0333 112.433 37.5 111.3C36.0333 110.1 35 108.5 34.4 106.5C33.8667 104.633 33.5333 102.6 33.4 100.4C33.3333 98.2 33.3 95.1 33.3 91.1C33.3 87.3667 33.1333 84.6 32.8 82.8C32.5333 81 31.8333 80.1 30.7 80.1C29.3667 80.1 28.4333 80.7 27.9 81.9C27.3667 83.0333 27.1 84.6667 27.1 86.8C27.1 88.7333 27.3667 91.7667 27.9 95.9C27.9667 96.7 28.1 97.9667 28.3 99.7C28.5 101.433 28.6 102.867 28.6 104C28.6 107.2 27.8667 109.467 26.4 110.8C25 112.133 22.9333 112.8 20.2 112.8C16.9333 112.8 14.1 111.033 11.7 107.5C9.3 103.967 7.5 99.5667 6.3 94.3C5.1 88.9667 4.5 83.7333 4.5 78.6C4.5 72.4667 5.36667 66.7667 7.1 61.5C8.9 56.2333 11.5667 52 15.1 48.8C18.7 45.6 23.0333 44 28.1 44C32.3667 44 35.7667 45.3333 38.3 48C40.8333 50.6 42.5333 53.7667 43.4 57.5C44.1333 53.8333 45.7667 50.6667 48.3 48C50.9 45.3333 54.3 44 58.5 44C63.5 44 67.7667 45.5667 71.3 48.7C74.9 51.7667 77.6333 56.0667 79.5 61.6C81.4333 67.1333 82.4 73.5333 82.4 80.8C82.4 85.5333 81.7333 90.4333 80.4 95.5C79.0667 100.5 77.2 104.667 74.8 108C72.4 111.333 69.6667 113 66.6 113C63.8 113 61.6667 112.3 60.2 110.9C58.7333 109.5 58 107.2 58 104C58 102.533 58.2667 99.8 58.8 95.8C59.3333 91.5333 59.6 88.4667 59.6 86.6C59.6 82.2667 58.4333 80.1 56.1 80.1C54.9 80.1 54.1333 81.0667 53.8 83C53.5333 84.9333 53.3667 88.0667 53.3 92.4C53.3 95.6667 53.2333 98.4 53.1 100.6C52.9667 102.733 52.6667 104.7 52.2 106.5C51.6667 108.433 50.6 110 49 111.2C47.4667 112.4 45.5333 113 43.2 113ZM124.71 78.7C130.643 81.4333 135.677 84.7333 139.81 88.6C144.01 92.4667 146.11 96.6667 146.11 101.2C146.11 105.2 145.01 108.167 142.81 110.1C140.61 112.033 137.91 113 134.71 113C130.11 113 125.777 110.9 121.71 106.7C117.71 102.433 113.843 96.8667 110.11 90C110.11 94.7333 109.843 98.7 109.31 101.9C108.843 105.1 107.777 107.767 106.11 109.9C104.443 111.967 101.943 113 98.6102 113C95.1435 113 92.5768 111.7 90.9102 109.1C89.3102 106.5 88.3102 103.367 87.9102 99.7C87.5768 96.0333 87.4102 91.2333 87.4102 85.3C87.4102 81.1 87.4435 76.1333 87.5102 70.4C87.6435 64.6 87.7768 61 87.9102 59.6C88.0435 54.6 89.0768 50.6 91.0102 47.6C92.9435 44.5333 95.6768 43 99.2102 43C103.277 43 106.11 44.7333 107.71 48.2C109.377 51.6667 110.21 56.9667 110.21 64.1V67.1C113.61 60.9667 117.543 55.4667 122.01 50.6C126.477 45.7333 130.943 43.3 135.41 43.3C138.543 43.3 141.11 44.5 143.11 46.9C145.177 49.2333 146.21 52.1333 146.21 55.6C146.21 60.2667 144.21 64.7333 140.21 69C136.277 73.2 131.11 76.4333 124.71 78.7Z" fill="black"/>
</svg>
