<svg width="331" height="127" viewBox="0 0 331 127" fill="none" xmlns="http://www.w3.org/2000/svg">
<g clip-path="url(#clip0_10_34)">
<path d="M166.22 127V81.4H169.46V108.58L184.4 95.2H188.9L173 109.48L189.44 127H185.12L169.46 110.32V127H166.22ZM208.007 94.6C210.367 94.6 212.307 95.04 213.827 95.92C215.387 96.76 216.607 97.74 217.487 98.86C218.367 99.94 219.007 100.84 219.407 101.56H219.647V95.2H222.947V127H219.647V120.64H219.407C219.007 121.36 218.367 122.28 217.487 123.4C216.607 124.48 215.387 125.46 213.827 126.34C212.307 127.18 210.367 127.6 208.007 127.6C205.607 127.6 203.507 127.14 201.707 126.22C199.947 125.26 198.467 124 197.267 122.44C196.067 120.88 195.167 119.12 194.567 117.16C193.967 115.16 193.667 113.14 193.667 111.1C193.667 109.06 193.967 107.06 194.567 105.1C195.167 103.14 196.067 101.38 197.267 99.82C198.467 98.22 199.947 96.96 201.707 96.04C203.507 95.08 205.607 94.6 208.007 94.6ZM208.367 97.6C205.807 97.6 203.687 98.26 202.007 99.58C200.327 100.9 199.067 102.6 198.227 104.68C197.387 106.72 196.967 108.86 196.967 111.1C196.967 113.34 197.387 115.5 198.227 117.58C199.067 119.62 200.327 121.3 202.007 122.62C203.687 123.94 205.807 124.6 208.367 124.6C210.887 124.6 212.987 123.94 214.667 122.62C216.347 121.3 217.607 119.62 218.447 117.58C219.287 115.5 219.707 113.34 219.707 111.1C219.707 108.86 219.287 106.72 218.447 104.68C217.607 102.6 216.347 100.9 214.667 99.58C212.987 98.26 210.887 97.6 208.367 97.6ZM232.538 127V95.2H235.778V99.46H236.018C236.698 98.18 237.698 97.06 239.018 96.1C240.338 95.1 242.138 94.6 244.418 94.6C245.218 94.6 245.918 94.64 246.518 94.72C247.118 94.8 247.418 94.84 247.418 94.84V98.02C247.418 98.02 247.098 97.98 246.458 97.9C245.818 97.82 245.138 97.78 244.418 97.78C242.898 97.78 241.478 98.1 240.158 98.74C238.878 99.38 237.818 100.54 236.978 102.22C236.178 103.86 235.778 106.22 235.778 109.3V127H232.538ZM258.427 88.96C257.667 88.96 257.027 88.7 256.507 88.18C256.027 87.66 255.787 87.04 255.787 86.32C255.787 85.6 256.027 84.98 256.507 84.46C257.027 83.94 257.667 83.68 258.427 83.68C259.187 83.68 259.827 83.94 260.347 84.46C260.867 84.98 261.127 85.6 261.127 86.32C261.127 87.04 260.867 87.66 260.347 88.18C259.827 88.7 259.187 88.96 258.427 88.96ZM256.867 127V95.2H260.107V127H256.867ZM270.273 127V95.2H273.513V100.9H273.753C274.113 100.18 274.673 99.32 275.433 98.32C276.193 97.32 277.213 96.46 278.493 95.74C279.813 94.98 281.453 94.6 283.413 94.6C285.853 94.6 287.913 95.26 289.593 96.58C291.313 97.86 292.533 99.66 293.253 101.98H293.373C293.893 100.74 294.613 99.56 295.533 98.44C296.453 97.28 297.593 96.36 298.953 95.68C300.313 94.96 301.973 94.6 303.933 94.6C307.173 94.6 309.753 95.74 311.673 98.02C313.593 100.26 314.553 103.38 314.553 107.38V127H311.253V107.5C311.253 104.3 310.553 101.86 309.153 100.18C307.753 98.46 305.813 97.6 303.333 97.6C301.173 97.6 299.413 98.2 298.053 99.4C296.693 100.6 295.673 102.14 294.993 104.02C294.353 105.9 294.033 107.88 294.033 109.96V127H290.793V107.5C290.793 104.3 290.073 101.86 288.633 100.18C287.233 98.46 285.293 97.6 282.813 97.6C280.653 97.6 278.893 98.2 277.533 99.4C276.173 100.6 275.153 102.14 274.473 104.02C273.833 105.9 273.513 107.88 273.513 109.96V127H270.273ZM326.279 88.96C325.519 88.96 324.879 88.7 324.359 88.18C323.879 87.66 323.639 87.04 323.639 86.32C323.639 85.6 323.879 84.98 324.359 84.46C324.879 83.94 325.519 83.68 326.279 83.68C327.039 83.68 327.679 83.94 328.199 84.46C328.719 84.98 328.979 85.6 328.979 86.32C328.979 87.04 328.719 87.66 328.199 88.18C327.679 88.7 327.039 88.96 326.279 88.96ZM324.719 127V95.2H327.959V127H324.719Z" fill="black"/>
<path d="M4.7 68C3.43333 68 2.56667 67.6333 2.1 66.9C1.63333 66.1667 1.4 65.3667 1.4 64.5C1.4 60.3667 1.8 55.6333 2.6 50.3C3.46667 44.9667 4.5 39.6667 5.7 34.4C6.76667 29.9333 7.93333 25.7667 9.2 21.9C10.5333 18.0333 11.7 14.8667 12.7 12.4C14.1667 8.93333 15.8333 6.3 17.7 4.5C19.6333 2.63333 21.8667 1.69999 24.4 1.69999C26.2667 1.69999 27.9333 2.33333 29.4 3.6C30.8667 4.8 31.7333 7 32 10.2C32.4 14.0667 32.8667 17.9667 33.4 21.9C33.9333 25.8333 34.5333 29.4333 35.2 32.7C35.8667 35.9 36.5667 38.3667 37.3 40.1C37.9 41.6333 38.7667 42.4 39.9 42.4C41.1667 42.4 42.2667 41.6 43.2 40C44.0667 38.5333 45 36.5333 46 34C47 31.4667 47.9667 28.8 48.9 26C49.9 23.1333 50.7667 20.5333 51.5 18.2C52.3667 15.6667 53.3333 13.1333 54.4 10.6C55.5333 8 56.9667 5.86666 58.7 4.2C60.4333 2.46666 62.6 1.6 65.2 1.6C67.6 1.6 69.3 2.43333 70.3 4.1C71.3667 5.7 71.9 8.26666 71.9 11.8C71.9 14.5333 71.8 17.4 71.6 20.4C71.5333 22.1333 71.4333 23.9333 71.3 25.8C71.2333 27.6 71.2 29.4667 71.2 31.4C71.2 34.4 71.3333 37.5667 71.6 40.9C71.9333 44.2333 72.5333 47.3667 73.4 50.3C74.3333 53.2333 75.7 55.7 77.5 57.7C78.0333 58.1667 78.5 58.7 78.9 59.3C79.3667 59.9 79.6 60.5667 79.6 61.3C79.6 62.9667 78.7 64.5 76.9 65.9C75.1667 67.2333 73.1667 67.9 70.9 67.9C68.8333 67.9 67.3 67.2333 66.3 65.9C65.3 64.5667 64.5 62.7667 63.9 60.5C63.2333 57.7 62.7667 54.7 62.5 51.5C62.2333 48.3 62.1 45.2 62.1 42.2C62.1 37.4 62.2667 33 62.6 29C63 24.9333 63.2 21.9333 63.2 20C63.2 18.9333 63.1 18.1667 62.9 17.7C62.7 17.1667 62.2 16.9 61.4 16.9C60.4667 16.9 59.6667 17.3333 59 18.2C58.4 19 57.9 20.1333 57.5 21.6C56.6333 24.4 55.6667 27.4 54.6 30.6C53.5333 33.8 52.4 36.9333 51.2 40C50.0667 43.0667 48.8333 45.8 47.5 48.2C45.9667 51 44.3 52.9 42.5 53.9C40.7667 54.8333 39 55.3 37.2 55.3C34.4 55.3 32.2667 54.4333 30.8 52.7C29.4 50.9 28.3667 48.9333 27.7 46.8C26.8333 43.9333 26.0333 40.2 25.3 35.6C24.5667 30.9333 24.0333 25.7 23.7 19.9C23.5667 17.4333 22.7667 16.2 21.3 16.2C19.7 16.2 18.4333 17.4 17.5 19.8C16.7 22.2 15.9333 25.0333 15.2 28.3C14.4667 31.5 13.8667 34.8667 13.4 38.4C13 41.8667 12.8 45.3 12.8 48.7C12.8 51.5667 12.9 54.0667 13.1 56.2C13.3667 58.3333 13.5 60.3333 13.5 62.2C13.5 63.5333 12.9667 64.6333 11.9 65.5C10.9 66.3667 9.7 67 8.3 67.4C6.9 67.8 5.7 68 4.7 68ZM101.854 68.3C97.2539 68.3 93.5539 67.0667 90.7539 64.6C88.0206 62.0667 86.6539 58.3667 86.6539 53.5C86.6539 51.2333 86.9539 49.0333 87.5539 46.9C88.2206 44.7667 89.0872 42.7667 90.1539 40.9C89.0872 41.5667 88.2872 41.9 87.7539 41.9C86.9539 41.9 86.3872 41.4667 86.0539 40.6C85.7872 39.6667 85.6539 38.7667 85.6539 37.9C85.6539 36.3667 85.9539 35.1667 86.5539 34.3C87.2206 33.3667 87.8539 32.6667 88.4539 32.2C89.8539 31 92.0539 29.7 95.0539 28.3C98.0539 26.8333 101.654 26.1 105.854 26.1C111.587 26.1 116.021 27.7 119.154 30.9C122.354 34.1 123.954 38.5667 123.954 44.3C123.954 48.7667 123.021 52.8333 121.154 56.5C119.287 60.1 116.687 62.9667 113.354 65.1C110.087 67.2333 106.254 68.3 101.854 68.3ZM104.954 58.1C108.287 58.1 111.087 57.0667 113.354 55C115.687 52.8667 116.854 50.0667 116.854 46.6C116.854 43 115.687 40.4333 113.354 38.9C111.021 37.3667 108.321 36.6 105.254 36.6C103.854 36.6 102.587 36.7333 101.454 37C100.321 37.2667 99.2539 37.6 98.2539 38C97.3206 39.3333 96.4872 40.8333 95.7539 42.5C95.0206 44.1667 94.6539 46 94.6539 48C94.6539 51.3333 95.6539 53.8667 97.6539 55.6C99.6539 57.2667 102.087 58.1 104.954 58.1ZM137.659 68.1C136.593 68.1 135.726 67.9 135.059 67.5C134.459 67.1667 134.259 66.5667 134.459 65.7C135.193 62.8333 135.793 59.9333 136.259 57C136.793 54 137.059 51.1333 137.059 48.4C137.059 44.8667 136.826 42.3 136.359 40.7C135.959 39.0333 135.393 37.9 134.659 37.3C133.926 36.6333 133.026 36.1333 131.959 35.8C131.493 35.6 131.059 35.3333 130.659 35C130.326 34.6667 130.159 34.2 130.159 33.6C130.159 32.6667 130.526 31.6333 131.259 30.5C131.993 29.3667 133.026 28.4 134.359 27.6C135.693 26.7333 137.226 26.3 138.959 26.3C141.226 26.3 142.793 27.1 143.659 28.7C144.593 30.2333 145.059 32.2667 145.059 34.8C146.259 32.1333 147.726 30.0333 149.459 28.5C151.259 26.9 153.493 26.1 156.159 26.1C157.959 26.1 159.459 26.5 160.659 27.3C161.859 28.1 162.459 29.4 162.459 31.2C162.459 33 161.859 34.7 160.659 36.3C159.526 37.8333 158.359 38.6 157.159 38.6C156.959 38.6 156.726 38.5667 156.459 38.5C156.193 38.4333 155.959 38.2667 155.759 38C154.893 36.9333 153.826 36.4 152.559 36.4C150.626 36.4 148.926 37.6667 147.459 40.2C145.993 42.7333 145.193 46.2333 145.059 50.7C145.126 52.3667 145.159 54.0667 145.159 55.8C145.226 57.5333 145.259 58.8 145.259 59.6C145.259 62.0667 144.559 64.1 143.159 65.7C141.826 67.3 139.993 68.1 137.659 68.1ZM179.56 68.3C175.493 68.3 172.56 66.9667 170.76 64.3C169.027 61.5667 168.16 58.0667 168.16 53.8C168.16 52.2667 168.227 50.7667 168.36 49.3C168.56 47.8333 168.76 46.3667 168.96 44.9C169.16 43.4333 169.36 42 169.56 40.6C169.76 39.2 169.927 37.8667 170.06 36.6C168.66 37 167.26 37.2 165.86 37.2C164.393 37.2 163.66 36.6 163.66 35.4C163.66 34.1333 164.227 32.6 165.36 30.8C166.493 28.9333 167.893 27.1 169.56 25.3C171.293 23.5 172.993 22 174.66 20.8C176.393 19.5333 177.86 18.9 179.06 18.9C180.527 18.9 181.26 20.1667 181.26 22.7C181.26 23.3667 181.193 24.0667 181.06 24.8C180.993 25.4667 180.893 26.1667 180.76 26.9C182.027 26.6333 183.293 26.4 184.56 26.2C185.893 26 187.16 25.9 188.36 25.9C189.893 25.9 191.06 26.1667 191.86 26.7C192.727 27.2333 193.16 28.2667 193.16 29.8C193.16 31.4 192.76 33 191.96 34.6C191.227 36.2 190.393 37 189.46 37C189.26 37 188.927 36.9667 188.46 36.9C187.993 36.8333 187.427 36.7333 186.76 36.6C185.893 36.4 184.793 36.2 183.46 36C182.127 35.8 180.527 35.7 178.66 35.7C178.193 37.7667 177.76 39.9 177.36 42.1C177.027 44.2333 176.86 46.1667 176.86 47.9C176.86 51.7667 177.827 54.4 179.76 55.8C181.693 57.2 184.493 57.9 188.16 57.9C189.293 57.9 190.093 58.1 190.56 58.5C191.027 58.8333 191.26 59.4667 191.26 60.4C191.26 62.6 190.127 64.4667 187.86 66C185.593 67.5333 182.827 68.3 179.56 68.3ZM213.375 68.3C208.308 68.3 204.342 66.8667 201.475 64C198.675 61.0667 197.275 57 197.275 51.8C197.275 47.0667 198.308 42.7667 200.375 38.9C202.442 35.0333 205.208 31.9667 208.675 29.7C212.208 27.3667 216.075 26.2 220.275 26.2C224.275 26.2 227.475 27.2 229.875 29.2C232.275 31.1333 233.475 33.7333 233.475 37C233.475 39.6 232.675 42 231.075 44.2C229.475 46.4 227.342 48.1667 224.675 49.5C222.008 50.7667 219.042 51.4 215.775 51.4C211.775 51.4 208.508 50.5 205.975 48.7C206.042 51.7667 207.075 54.2333 209.075 56.1C211.142 57.9667 213.775 58.9 216.975 58.9C218.908 58.9 220.875 58.5667 222.875 57.9C224.942 57.1667 226.708 56.2 228.175 55C229.108 54.2 229.975 53.8 230.775 53.8C231.442 53.8 231.975 54.0333 232.375 54.5C232.842 54.9 233.075 55.4333 233.075 56.1C233.075 57.5667 231.808 59.5 229.275 61.9C224.808 66.1667 219.508 68.3 213.375 68.3ZM214.875 44.8C217.275 44.8 219.275 44.3 220.875 43.3C222.475 42.3 223.275 41.0333 223.275 39.5C223.275 38.2333 222.742 37.2667 221.675 36.6C220.608 35.8667 219.142 35.5 217.275 35.5C214.808 35.5 212.642 36.1667 210.775 37.5C208.975 38.7667 207.675 40.5667 206.875 42.9C207.808 43.5 209.008 43.9667 210.475 44.3C211.942 44.6333 213.408 44.8 214.875 44.8ZM257.632 68.1C255.299 68.1 253.199 68.0333 251.332 67.9C249.465 67.7667 247.832 67.5667 246.432 67.3C244.965 67.0333 243.765 66.6667 242.832 66.2C241.965 65.7333 241.265 65.2 240.732 64.6C240.332 64.1333 239.999 63.5 239.732 62.7C239.465 61.9 239.332 61.1667 239.332 60.5C239.332 58.3667 240.165 56.5667 241.832 55.1C243.565 53.6333 245.565 52.1333 247.832 50.6L261.132 41.4C262.932 40 263.832 39 263.832 38.4C263.832 36.9333 261.832 36.2 257.832 36.2C255.165 36.2 253.032 36.5333 251.432 37.2C249.832 37.8 248.732 38.5333 248.132 39.4C247.732 39.8667 247.365 40.2333 247.032 40.5C246.765 40.7 246.365 40.8 245.832 40.8C244.832 40.8 243.799 40.2667 242.732 39.2C241.732 38.0667 241.232 36.5667 241.232 34.7C241.232 32.5 242.065 30.8 243.732 29.6C245.399 28.4 247.565 27.5667 250.232 27.1C252.965 26.5667 255.865 26.3 258.932 26.3C262.265 26.3 265.099 26.5 267.432 26.9C269.832 27.2333 271.765 27.8667 273.232 28.8C274.365 29.4667 275.199 30.4 275.732 31.6C276.332 32.8 276.632 34.0667 276.632 35.4C276.632 37.6667 275.465 39.8 273.132 41.8C270.865 43.8 267.699 46.0333 263.632 48.5L252.432 55.3C251.765 55.7 251.432 56.1667 251.432 56.7C251.432 57.4333 251.899 57.8333 252.832 57.9C253.499 57.9667 254.332 58.0333 255.332 58.1C256.332 58.1 257.432 58.1 258.632 58.1C264.032 58.1 268.232 57.4 271.232 56C272.365 55.4 273.165 55.1 273.632 55.1C274.365 55.1 275.065 55.5667 275.732 56.5C276.465 57.3667 276.832 58.5 276.832 59.9C276.832 63.1 275.065 65.2667 271.532 66.4C267.999 67.5333 263.365 68.1 257.632 68.1ZM296.403 68.3C292.403 68.3 289.17 67.0667 286.703 64.6C284.303 62.0667 283.103 58.4667 283.103 53.8C283.103 50.4667 283.736 47.1667 285.003 43.9C286.336 40.5667 288.236 37.5667 290.703 34.9C293.17 32.2333 296.136 30.1 299.603 28.5C303.07 26.9 306.97 26.1 311.303 26.1C315.303 26.1 318.703 26.8 321.503 28.2C324.37 29.5333 325.803 31.3667 325.803 33.7C325.803 34.3 325.736 35.1 325.603 36.1C325.47 37.0333 325.303 37.8 325.103 38.4C324.903 38.9333 324.603 39.4333 324.203 39.9C323.87 40.3 323.403 40.5 322.803 40.5C322.536 40.5 322.036 40.4 321.303 40.2C321.036 41.6 320.836 42.9667 320.703 44.3C320.57 45.6333 320.503 46.9667 320.503 48.3C320.503 50.8333 320.87 53.1 321.603 55.1C322.403 57.0333 323.936 58.2333 326.203 58.7C326.803 58.8333 327.27 59.0333 327.603 59.3C328.003 59.5667 328.203 60.1333 328.203 61C328.203 61.7333 328.003 62.6667 327.603 63.8C327.27 64.9333 326.57 65.9667 325.503 66.9C324.503 67.7667 323.036 68.2 321.103 68.2C318.503 68.2 316.503 67.2667 315.103 65.4C313.703 63.4667 313.003 60.7333 313.003 57.2C311.203 60.4667 308.903 63.1333 306.103 65.2C303.37 67.2667 300.136 68.3 296.403 68.3ZM299.603 57.9C302.27 57.9 304.603 57.0667 306.603 55.4C308.67 53.7333 310.27 51.6333 311.403 49.1C312.136 47.5 312.703 45.7667 313.103 43.9C313.503 41.9667 313.77 40.0667 313.903 38.2C312.77 37.6667 311.47 37.2333 310.003 36.9C308.536 36.5667 307.003 36.4 305.403 36.4C301.336 36.4 297.97 37.6 295.303 40C292.703 42.4 291.403 45.4 291.403 49C291.403 51.6667 292.136 53.8333 293.603 55.5C295.07 57.1 297.07 57.9 299.603 57.9Z" fill="black"/>
</g>
<defs>
<clipPath id="clip0_10_34">
<rect width="331" height="127" fill="white"/>
</clipPath>
</defs>
</svg>
