<svg width="397" height="167" viewBox="0 0 397 167" fill="none" xmlns="http://www.w3.org/2000/svg">
<g clip-path="url(#clip0_10_33)">
<path d="M13.3066 41.8203C13.6322 43.1875 13.7949 44.929 13.7949 47.0449V69.5059C13.7949 71.0684 13.4694 72.2728 12.8184 73.1191C12.0371 74.0306 11.0443 74.8281 9.83984 75.5117C8.63542 76.1628 7.78906 76.4883 7.30078 76.4883C6.16146 76.4883 5.5918 75.7884 5.5918 74.3887V28.1484C5.5918 27.7578 5.68945 27.4486 5.88477 27.2207C6.08008 26.9603 6.32422 26.8301 6.61719 26.8301C7.10547 26.8301 7.59375 27.3184 8.08203 28.2949C8.60286 29.2715 9.51432 31.3548 10.8164 34.5449C12.1836 37.9629 13.0137 40.388 13.3066 41.8203ZM25.3184 64.0371L5.88477 13.5C5.62435 12.8815 5.49414 12.2793 5.49414 11.6934C5.49414 10.9121 5.80339 10.1797 6.42188 9.49609C7.17057 8.58464 8.16341 7.86849 9.40039 7.34766C10.6374 6.79427 11.5977 6.51758 12.2812 6.51758C12.9974 6.51758 13.5508 6.68034 13.9414 7.00586C14.3646 7.33138 14.7552 7.93359 15.1133 8.8125L31.6172 53.1973C32.2031 54.7923 32.4961 56.0944 32.4961 57.1035C32.4961 57.9173 32.3008 58.8939 31.9102 60.0332C31.1289 62.0189 30.3639 63.5814 29.6152 64.7207C28.9316 65.7949 28.1992 66.332 27.418 66.332C27.0273 66.332 26.6693 66.1693 26.3438 65.8438C26.0182 65.5182 25.6764 64.916 25.3184 64.0371ZM51.3926 41.1855L41.1875 67.6992C40.1133 70.3685 38.4206 72.5007 36.1094 74.0957C33.8633 75.6908 32.1217 76.4883 30.8848 76.4883C29.9082 76.4883 29.4199 76.0326 29.4199 75.1211C29.4199 74.7305 29.5827 74.1608 29.9082 73.4121L49.8789 20.4824C50.4648 19.278 50.9368 18.5944 51.2949 18.4316C51.4902 18.334 51.6855 18.2852 51.8809 18.2852C52.6296 18.2852 53.1016 18.9199 53.2969 20.1895C53.4922 21.3288 53.5898 23.9655 53.5898 28.0996C53.5898 30.6712 53.4434 32.9336 53.1504 34.8867C52.89 36.8073 52.304 38.9069 51.3926 41.1855ZM66.334 8.61719V69.2129C66.334 70.8079 66.0085 71.9961 65.3574 72.7773C64.5436 73.7539 63.3717 74.6165 61.8418 75.3652C60.3444 76.1139 59.1237 76.4883 58.1797 76.4883C57.0729 76.4883 56.5195 75.7884 56.5195 74.3887V13.793C56.5195 12.4258 56.8451 11.3353 57.4961 10.5215C58.3424 9.51237 59.5143 8.60091 61.0117 7.78711C62.5091 6.94076 63.7135 6.51758 64.625 6.51758C65.7643 6.51758 66.334 7.21745 66.334 8.61719ZM132.691 39.623C132.691 44.0176 132.464 47.9401 132.008 51.3906C131.552 54.8411 130.885 57.9173 130.006 60.6191C129.16 63.2884 128.102 65.6159 126.832 67.6016C125.595 69.5547 124.163 71.2311 122.535 72.6309C120.582 74.3561 118.906 75.2188 117.506 75.2188C116.822 75.2188 116.48 74.8118 116.48 73.998C116.48 73.7376 116.725 73.2982 117.213 72.6797C117.701 72.0286 118.173 71.2637 118.629 70.3848C121.233 65.4694 122.535 58.015 122.535 48.0215C122.535 46.2311 122.535 44.1478 122.535 41.7715C122.535 39.3952 122.372 36.9538 122.047 34.4473C121.754 31.9082 121.233 29.418 120.484 26.9766C119.736 24.5352 118.596 22.3542 117.066 20.4336C115.536 18.513 113.535 16.9668 111.061 15.7949C108.619 14.5905 105.559 13.9883 101.881 13.9883C99.0163 13.9883 96.2168 14.5254 93.4824 15.5996C90.748 16.6738 88.0299 18.2689 85.3281 20.3848L83.7656 21.6055C83.4727 21.8659 83.1471 22.0938 82.7891 22.2891C82.431 22.4844 82.1706 22.582 82.0078 22.582C81.3242 22.582 80.9824 22.2565 80.9824 21.6055C80.9824 20.5964 81.6823 19.1966 83.082 17.4062C86.0117 13.6628 89.4622 10.8307 93.4336 8.91016C97.4049 6.95703 101.588 5.98047 105.982 5.98047C110.41 5.98047 114.283 6.64779 117.604 7.98242C120.956 9.31706 123.74 11.3678 125.953 14.1348C128.199 16.8691 129.876 20.3522 130.982 24.584C132.122 28.8158 132.691 33.8288 132.691 39.623ZM90.8945 24.291C90.8945 24.584 90.7318 25.6094 90.4062 27.3672C90.0807 29.0924 89.7552 31.3874 89.4297 34.252C89.1042 37.1165 88.9414 40.0625 88.9414 43.0898C88.9414 45.4336 89.0065 47.5658 89.1367 49.4863C89.2995 51.4069 89.5599 53.4251 89.918 55.541C90.276 57.6569 90.8294 59.5124 91.5781 61.1074C92.3268 62.6699 93.2546 64.1185 94.3613 65.4531C95.4681 66.7552 96.8841 67.7643 98.6094 68.4805C100.335 69.1641 102.304 69.5059 104.518 69.5059C106.471 69.5059 108.196 69.3105 109.693 68.9199C111.191 68.4967 112.346 68.0898 113.16 67.6992C113.974 67.3086 114.527 67.1133 114.82 67.1133C115.536 67.1133 115.895 67.5039 115.895 68.2852C115.895 69.099 115.585 70.0104 114.967 71.0195C114.348 72.0286 113.486 73.0378 112.379 74.0469C111.272 75.0234 109.775 75.8372 107.887 76.4883C105.999 77.1719 103.964 77.5137 101.783 77.5137C97.3887 77.5137 93.6777 76.7975 90.6504 75.3652C87.623 73.9004 85.2467 71.7031 83.5215 68.7734C81.8288 65.8438 80.6081 62.4583 79.8594 58.6172C79.1432 54.776 78.7852 50.2025 78.7852 44.8965C78.7852 36.8561 79.599 31.2897 81.2266 28.1973C82.138 26.5046 83.4401 25.1374 85.1328 24.0957C86.8255 23.0215 88.2415 22.4844 89.3809 22.4844C90.39 22.4844 90.8945 23.0866 90.8945 24.291ZM176.246 30.834C176.246 28.3926 175.904 26.2604 175.221 24.4375C174.57 22.582 173.691 21.1009 172.584 19.9941C171.51 18.8548 170.159 17.9434 168.531 17.2598C166.904 16.5436 165.227 16.0553 163.502 15.7949C161.809 15.5345 159.905 15.4043 157.789 15.4043H146.168C145.745 15.4043 145.403 15.388 145.143 15.3555C144.915 15.3229 144.703 15.2253 144.508 15.0625C144.345 14.8672 144.264 14.6068 144.264 14.2812C144.264 12.8815 145.191 11.4167 147.047 9.88672C148.902 8.35677 150.774 7.55924 152.662 7.49414L161.939 7.34766C163.274 7.34766 164.544 7.39648 165.748 7.49414C166.952 7.55924 168.417 7.77083 170.143 8.12891C171.868 8.45443 173.447 8.89388 174.879 9.44727C176.311 10.0007 177.776 10.8145 179.273 11.8887C180.803 12.9303 182.073 14.1673 183.082 15.5996C184.124 17.0319 184.97 18.8385 185.621 21.0195C186.305 23.2005 186.646 25.6257 186.646 28.2949C186.646 35.2611 183.18 41.1367 176.246 45.9219C175.237 46.638 174.732 47.3867 174.732 48.168C174.732 48.7539 175.009 49.4701 175.562 50.3164L186.988 68.6758C187.704 69.8477 188.062 70.8568 188.062 71.7031C188.062 73.0052 187.2 74.1608 185.475 75.1699C184.075 76.0488 182.789 76.4883 181.617 76.4883C180.543 76.4883 179.599 75.7884 178.785 74.3887L165.26 50.707C164.869 50.1211 164.674 49.5514 164.674 48.998C164.674 48.0866 165.292 47.2728 166.529 46.5566C169.719 44.7663 172.128 42.5039 173.756 39.7695C175.416 37.0352 176.246 34.0566 176.246 30.834ZM144.264 44.5547V21.1172C144.264 19.9453 144.654 19.1803 145.436 18.8223C146.249 18.4316 147.486 18.2363 149.146 18.2363C150.969 18.2363 152.239 18.4316 152.955 18.8223C153.704 19.1803 154.078 19.9453 154.078 21.1172V38.8906C154.078 40.2904 154.697 40.9902 155.934 40.9902H164.479C165.878 40.9902 166.578 41.3971 166.578 42.2109C166.578 42.9922 165.813 43.9036 164.283 44.9453C162.753 45.9544 160.865 46.8008 158.619 47.4844C157.252 47.9076 153.867 48.1191 148.463 48.1191C146.803 48.1191 145.68 47.8262 145.094 47.2402C144.54 46.6543 144.264 45.7591 144.264 44.5547ZM154.078 54.0762V69.2129C154.078 70.8079 153.736 71.9961 153.053 72.7773C152.239 73.7539 151.083 74.6165 149.586 75.3652C148.121 76.1139 146.917 76.4883 145.973 76.4883C144.833 76.4883 144.264 75.7884 144.264 74.3887V54.0762C144.264 52.9043 144.671 52.1068 145.484 51.6836C146.331 51.2604 147.584 51.0488 149.244 51.0488C151.035 51.0488 152.288 51.2604 153.004 51.6836C153.72 52.0742 154.078 52.8717 154.078 54.0762ZM236.744 15.502H196.754C195.354 15.502 194.654 14.9974 194.654 13.9883C194.654 13.5326 194.98 12.7025 195.631 11.498C196.282 10.2936 197.047 9.30078 197.926 8.51953C198.674 7.83594 199.879 7.49414 201.539 7.49414H241.529C242.929 7.49414 243.629 7.9987 243.629 9.00781C243.629 9.46354 243.303 10.2936 242.652 11.498C242.001 12.7025 241.236 13.6953 240.357 14.4766C239.609 15.1602 238.404 15.502 236.744 15.502ZM213.355 74.3887L213.307 21.3613C213.307 20.1895 213.697 19.4245 214.479 19.0664C215.292 18.6758 216.529 18.4805 218.189 18.4805C220.012 18.4805 221.282 18.6758 221.998 19.0664C222.747 19.4245 223.121 20.1895 223.121 21.3613V69.2129C223.121 70.6126 222.796 71.7031 222.145 72.4844C221.298 73.4935 220.126 74.4212 218.629 75.2676C217.164 76.0814 215.976 76.4883 215.064 76.4883C213.925 76.4883 213.355 75.7884 213.355 74.3887ZM260.133 7.49414H286.451C287.851 7.49414 288.551 7.9987 288.551 9.00781C288.551 9.46354 288.225 10.2936 287.574 11.498C286.923 12.6699 286.142 13.6628 285.23 14.4766C284.482 15.1602 283.294 15.502 281.666 15.502H253.639C253.15 15.502 252.792 15.4857 252.564 15.4531C252.337 15.388 252.125 15.2415 251.93 15.0137C251.767 14.7858 251.686 14.4603 251.686 14.0371C251.686 12.8327 252.63 11.4492 254.518 9.88672C256.438 8.29167 258.31 7.49414 260.133 7.49414ZM251.734 73.9004V49.8281C251.734 48.6562 252.125 47.8913 252.906 47.5332C253.72 47.1426 254.973 46.9473 256.666 46.9473C258.489 46.9473 259.758 47.1426 260.475 47.5332C261.191 47.8913 261.549 48.6562 261.549 49.8281V65.9902C261.549 67.3249 262.216 67.9922 263.551 67.9922H287.428C288.827 67.9922 289.527 68.4967 289.527 69.5059C289.527 69.9616 289.202 70.8079 288.551 72.0449C287.9 73.2493 287.135 74.2422 286.256 75.0234C285.507 75.6745 284.303 76 282.643 76H253.443C252.304 76 251.734 75.3001 251.734 73.9004ZM251.734 42.0156V21.3613C251.734 20.1895 252.125 19.4082 252.906 19.0176C253.72 18.627 254.973 18.4316 256.666 18.4316C258.489 18.4316 259.758 18.627 260.475 19.0176C261.191 19.3757 261.549 20.1569 261.549 21.3613V34.0078C261.549 35.3424 262.216 36.0098 263.551 36.0098H283.424C284.824 36.0098 285.523 36.5143 285.523 37.5234C285.523 37.9792 285.198 38.8092 284.547 40.0137C283.896 41.1855 283.131 42.1784 282.252 42.9922C281.503 43.6758 280.299 44.0176 278.639 44.0176H253.736C252.402 44.0176 251.734 43.3503 251.734 42.0156ZM334.547 76H298.609C297.21 76 296.51 75.4954 296.51 74.4863C296.51 74.0306 296.835 73.2005 297.486 71.9961C298.137 70.7917 298.902 69.7988 299.781 69.0176C300.53 68.334 301.734 67.9922 303.395 67.9922H339.332C340.732 67.9922 341.432 68.4967 341.432 69.5059C341.432 69.9616 341.106 70.7917 340.455 71.9961C339.804 73.2005 339.039 74.1934 338.16 74.9746C337.411 75.6582 336.207 76 334.547 76ZM333.814 23.3145L313.209 60.082C312.102 62.0677 311.044 63.4023 310.035 64.0859C309.059 64.737 307.626 65.0625 305.738 65.0625C303.622 65.0625 302.564 64.5417 302.564 63.5C302.564 62.9792 303.02 61.8724 303.932 60.1797L324.439 23.4121C325.514 21.459 326.523 20.1406 327.467 19.457C328.443 18.7734 329.957 18.4316 332.008 18.4316C334.091 18.4316 335.133 18.9525 335.133 19.9941C335.133 20.5801 334.693 21.6868 333.814 23.3145ZM307.057 7.49414H339.82C341.22 7.49414 341.92 7.9987 341.92 9.00781C341.92 9.46354 341.594 10.2936 340.943 11.498C340.292 12.6699 339.511 13.6628 338.6 14.4766C337.851 15.1602 336.663 15.502 335.035 15.502H300.562C300.074 15.502 299.716 15.4857 299.488 15.4531C299.26 15.388 299.049 15.2415 298.854 15.0137C298.691 14.7858 298.609 14.4603 298.609 14.0371C298.609 12.8327 299.553 11.4492 301.441 9.88672C303.362 8.29167 305.234 7.49414 307.057 7.49414ZM358.912 60.9609L356.178 69.2129C355.494 71.2962 354.306 73.0378 352.613 74.4375C350.921 75.8047 349.016 76.4883 346.9 76.4883C346.38 76.4883 345.94 76.3418 345.582 76.0488C345.257 75.7884 345.094 75.3978 345.094 74.877C345.094 74.6816 345.159 74.3887 345.289 73.998L349.977 60.5703C350.204 59.8867 350.449 59.3659 350.709 59.0078C350.969 58.6172 351.327 58.3405 351.783 58.1777C352.271 58.015 352.695 57.9173 353.053 57.8848C353.443 57.8522 354.094 57.8359 355.006 57.8359C355.755 57.8359 356.308 57.8522 356.666 57.8848C357.024 57.8848 357.431 57.9336 357.887 58.0312C358.375 58.1289 358.717 58.3079 358.912 58.5684C359.107 58.7962 359.205 59.1217 359.205 59.5449C359.205 59.8379 359.107 60.3099 358.912 60.9609ZM374.977 8.08008L395.777 68.5781C396.005 69.6198 396.119 70.2057 396.119 70.3359C396.119 71.7357 395.305 73.1191 393.678 74.4863C392.05 75.821 390.618 76.4883 389.381 76.4883C388.307 76.4883 387.477 75.6582 386.891 73.998L366.578 14.7207C366.253 13.2559 366.09 12.4746 366.09 12.377C366.09 10.9447 366.985 9.52865 368.775 8.12891C370.598 6.69661 371.998 5.98047 372.975 5.98047C373.528 5.98047 373.919 6.12695 374.146 6.41992C374.407 6.68034 374.684 7.23372 374.977 8.08008ZM374.098 54.9062H354.273C353.036 54.9062 352.418 54.3691 352.418 53.2949C352.418 53.002 352.483 52.6764 352.613 52.3184L362.623 22.3867C363.079 21.1172 363.6 20.4824 364.186 20.4824C364.706 20.4824 365.162 20.8079 365.553 21.459C365.943 22.0775 366.367 23.0866 366.822 24.4863C367.669 27.123 368.092 29.0924 368.092 30.3945C368.092 31.306 367.929 32.2663 367.604 33.2754L363.795 44.8965C363.73 45.0592 363.697 45.2871 363.697 45.5801C363.697 46.459 364.202 46.8984 365.211 46.8984H370.289C371.949 46.8984 373.072 46.9798 373.658 47.1426C374.244 47.3053 374.716 47.7611 375.074 48.5098C375.4 49.1608 375.66 50.0072 375.855 51.0488C376.083 52.0579 376.197 52.8066 376.197 53.2949C376.197 54.3691 375.497 54.9062 374.098 54.9062Z" fill="black"/>
<path d="M131.309 90.6172V151.213C131.309 152.808 130.967 153.996 130.283 154.777C129.469 155.754 128.314 156.617 126.816 157.365C125.352 158.114 124.147 158.488 123.203 158.488C122.064 158.488 121.494 157.788 121.494 156.389V95.793C121.494 94.4258 121.836 93.3353 122.52 92.5215C123.366 91.5124 124.521 90.6009 125.986 89.7871C127.451 88.9408 128.656 88.5176 129.6 88.5176C130.739 88.5176 131.309 89.2174 131.309 90.6172ZM157.578 156.486L135.117 124.406C134.434 123.462 134.092 122.6 134.092 121.818C134.092 120.679 134.661 119.377 135.801 117.912L154.209 93.498C155.739 91.4473 157.122 90.1126 158.359 89.4941C159.629 88.8431 161.484 88.5176 163.926 88.5176C165.716 88.5176 166.611 89.0059 166.611 89.9824C166.611 90.6986 166.139 91.6426 165.195 92.8145L145.713 117.424C144.769 118.628 144.297 119.589 144.297 120.305C144.297 120.988 144.785 121.981 145.762 123.283L165.195 149.211C165.879 150.155 166.221 151.018 166.221 151.799C166.221 152.71 165.944 153.638 165.391 154.582C163.763 157.186 162.038 158.488 160.215 158.488C159.401 158.488 158.522 157.821 157.578 156.486ZM183.018 142.961L180.283 151.213C179.6 153.296 178.411 155.038 176.719 156.438C175.026 157.805 173.122 158.488 171.006 158.488C170.485 158.488 170.046 158.342 169.688 158.049C169.362 157.788 169.199 157.398 169.199 156.877C169.199 156.682 169.264 156.389 169.395 155.998L174.082 142.57C174.31 141.887 174.554 141.366 174.814 141.008C175.075 140.617 175.433 140.34 175.889 140.178C176.377 140.015 176.8 139.917 177.158 139.885C177.549 139.852 178.2 139.836 179.111 139.836C179.86 139.836 180.413 139.852 180.771 139.885C181.13 139.885 181.536 139.934 181.992 140.031C182.48 140.129 182.822 140.308 183.018 140.568C183.213 140.796 183.311 141.122 183.311 141.545C183.311 141.838 183.213 142.31 183.018 142.961ZM199.082 90.0801L219.883 150.578C220.111 151.62 220.225 152.206 220.225 152.336C220.225 153.736 219.411 155.119 217.783 156.486C216.156 157.821 214.723 158.488 213.486 158.488C212.412 158.488 211.582 157.658 210.996 155.998L190.684 96.7207C190.358 95.2559 190.195 94.4746 190.195 94.377C190.195 92.9447 191.09 91.5286 192.881 90.1289C194.704 88.6966 196.104 87.9805 197.08 87.9805C197.633 87.9805 198.024 88.127 198.252 88.4199C198.512 88.6803 198.789 89.2337 199.082 90.0801ZM198.203 136.906H178.379C177.142 136.906 176.523 136.369 176.523 135.295C176.523 135.002 176.589 134.676 176.719 134.318L186.729 104.387C187.184 103.117 187.705 102.482 188.291 102.482C188.812 102.482 189.268 102.808 189.658 103.459C190.049 104.077 190.472 105.087 190.928 106.486C191.774 109.123 192.197 111.092 192.197 112.395C192.197 113.306 192.035 114.266 191.709 115.275L187.9 126.896C187.835 127.059 187.803 127.287 187.803 127.58C187.803 128.459 188.307 128.898 189.316 128.898H194.395C196.055 128.898 197.178 128.98 197.764 129.143C198.35 129.305 198.822 129.761 199.18 130.51C199.505 131.161 199.766 132.007 199.961 133.049C200.189 134.058 200.303 134.807 200.303 135.295C200.303 136.369 199.603 136.906 198.203 136.906ZM258.75 112.834C258.75 110.393 258.408 108.26 257.725 106.438C257.074 104.582 256.195 103.101 255.088 101.994C254.014 100.855 252.663 99.9434 251.035 99.2598C249.408 98.5436 247.731 98.0553 246.006 97.7949C244.313 97.5345 242.409 97.4043 240.293 97.4043H228.672C228.249 97.4043 227.907 97.388 227.646 97.3555C227.419 97.3229 227.207 97.2253 227.012 97.0625C226.849 96.8672 226.768 96.6068 226.768 96.2812C226.768 94.8815 227.695 93.4167 229.551 91.8867C231.406 90.3568 233.278 89.5592 235.166 89.4941L244.443 89.3477C245.778 89.3477 247.048 89.3965 248.252 89.4941C249.456 89.5592 250.921 89.7708 252.646 90.1289C254.372 90.4544 255.951 90.8939 257.383 91.4473C258.815 92.0007 260.28 92.8145 261.777 93.8887C263.307 94.9303 264.577 96.1673 265.586 97.5996C266.628 99.0319 267.474 100.839 268.125 103.02C268.809 105.201 269.15 107.626 269.15 110.295C269.15 117.261 265.684 123.137 258.75 127.922C257.741 128.638 257.236 129.387 257.236 130.168C257.236 130.754 257.513 131.47 258.066 132.316L269.492 150.676C270.208 151.848 270.566 152.857 270.566 153.703C270.566 155.005 269.704 156.161 267.979 157.17C266.579 158.049 265.293 158.488 264.121 158.488C263.047 158.488 262.103 157.788 261.289 156.389L247.764 132.707C247.373 132.121 247.178 131.551 247.178 130.998C247.178 130.087 247.796 129.273 249.033 128.557C252.223 126.766 254.632 124.504 256.26 121.77C257.92 119.035 258.75 116.057 258.75 112.834ZM226.768 126.555V103.117C226.768 101.945 227.158 101.18 227.939 100.822C228.753 100.432 229.99 100.236 231.65 100.236C233.473 100.236 234.743 100.432 235.459 100.822C236.208 101.18 236.582 101.945 236.582 103.117V120.891C236.582 122.29 237.201 122.99 238.438 122.99H246.982C248.382 122.99 249.082 123.397 249.082 124.211C249.082 124.992 248.317 125.904 246.787 126.945C245.257 127.954 243.369 128.801 241.123 129.484C239.756 129.908 236.37 130.119 230.967 130.119C229.307 130.119 228.184 129.826 227.598 129.24C227.044 128.654 226.768 127.759 226.768 126.555ZM236.582 136.076V151.213C236.582 152.808 236.24 153.996 235.557 154.777C234.743 155.754 233.587 156.617 232.09 157.365C230.625 158.114 229.421 158.488 228.477 158.488C227.337 158.488 226.768 157.788 226.768 156.389V136.076C226.768 134.904 227.174 134.107 227.988 133.684C228.835 133.26 230.088 133.049 231.748 133.049C233.538 133.049 234.792 133.26 235.508 133.684C236.224 134.074 236.582 134.872 236.582 136.076ZM291.953 90.6172V151.213C291.953 152.808 291.611 153.996 290.928 154.777C290.114 155.754 288.958 156.617 287.461 157.365C285.996 158.114 284.792 158.488 283.848 158.488C282.708 158.488 282.139 157.788 282.139 156.389V95.793C282.139 94.4258 282.48 93.3353 283.164 92.5215C284.01 91.5124 285.166 90.6009 286.631 89.7871C288.096 88.9408 289.3 88.5176 290.244 88.5176C291.383 88.5176 291.953 89.2174 291.953 90.6172ZM312.803 123.82C313.128 125.188 313.291 126.929 313.291 129.045V151.506C313.291 153.068 312.965 154.273 312.314 155.119C311.533 156.031 310.54 156.828 309.336 157.512C308.132 158.163 307.285 158.488 306.797 158.488C305.658 158.488 305.088 157.788 305.088 156.389V110.148C305.088 109.758 305.186 109.449 305.381 109.221C305.576 108.96 305.82 108.83 306.113 108.83C306.602 108.83 307.09 109.318 307.578 110.295C308.099 111.271 309.01 113.355 310.312 116.545C311.68 119.963 312.51 122.388 312.803 123.82ZM324.814 146.037L305.381 95.5C305.12 94.8815 304.99 94.2793 304.99 93.6934C304.99 92.9121 305.299 92.1797 305.918 91.4961C306.667 90.5846 307.66 89.8685 308.896 89.3477C310.133 88.7943 311.094 88.5176 311.777 88.5176C312.493 88.5176 313.047 88.6803 313.438 89.0059C313.861 89.3314 314.251 89.9336 314.609 90.8125L331.113 135.197C331.699 136.792 331.992 138.094 331.992 139.104C331.992 139.917 331.797 140.894 331.406 142.033C330.625 144.019 329.86 145.581 329.111 146.721C328.428 147.795 327.695 148.332 326.914 148.332C326.523 148.332 326.165 148.169 325.84 147.844C325.514 147.518 325.173 146.916 324.814 146.037ZM350.889 123.186L340.684 149.699C339.609 152.368 337.917 154.501 335.605 156.096C333.359 157.691 331.618 158.488 330.381 158.488C329.404 158.488 328.916 158.033 328.916 157.121C328.916 156.73 329.079 156.161 329.404 155.412L349.375 102.482C349.961 101.278 350.433 100.594 350.791 100.432C350.986 100.334 351.182 100.285 351.377 100.285C352.126 100.285 352.598 100.92 352.793 102.189C352.988 103.329 353.086 105.965 353.086 110.1C353.086 112.671 352.939 114.934 352.646 116.887C352.386 118.807 351.8 120.907 350.889 123.186ZM365.83 90.6172V151.213C365.83 152.808 365.505 153.996 364.854 154.777C364.04 155.754 362.868 156.617 361.338 157.365C359.84 158.114 358.62 158.488 357.676 158.488C356.569 158.488 356.016 157.788 356.016 156.389V95.793C356.016 94.4258 356.341 93.3353 356.992 92.5215C357.839 91.5124 359.01 90.6009 360.508 89.7871C362.005 88.9408 363.21 88.5176 364.121 88.5176C365.26 88.5176 365.83 89.2174 365.83 90.6172ZM389.609 90.6172V151.213C389.609 152.808 389.268 153.996 388.584 154.777C387.77 155.754 386.615 156.617 385.117 157.365C383.652 158.114 382.448 158.488 381.504 158.488C380.365 158.488 379.795 157.788 379.795 156.389V95.793C379.795 94.4258 380.137 93.3353 380.82 92.5215C381.667 91.5124 382.822 90.6009 384.287 89.7871C385.752 88.9408 386.956 88.5176 387.9 88.5176C389.04 88.5176 389.609 89.2174 389.609 90.6172Z" fill="black"/>
</g>
<defs>
<clipPath id="clip0_10_33">
<rect width="397" height="167" fill="white"/>
</clipPath>
</defs>
</svg>
