<svg width="143" height="70" viewBox="0 0 143 70" fill="none" xmlns="http://www.w3.org/2000/svg">
<path d="M39.2 70C36.9333 70 35.0333 69.4333 33.5 68.3C32.0333 67.1 31 65.5 30.4 63.5C29.8667 61.6333 29.5333 59.6 29.4 57.4C29.3333 55.2 29.3 52.1 29.3 48.1C29.3 44.3667 29.1333 41.6 28.8 39.8C28.5333 38 27.8333 37.1 26.7 37.1C25.3667 37.1 24.4333 37.7 23.9 38.9C23.3667 40.0333 23.1 41.6667 23.1 43.8C23.1 45.7333 23.3667 48.7667 23.9 52.9C23.9667 53.7 24.1 54.9667 24.3 56.7C24.5 58.4333 24.6 59.8667 24.6 61C24.6 64.2 23.8667 66.4667 22.4 67.8C21 69.1333 18.9333 69.8 16.2 69.8C12.9333 69.8 10.1 68.0333 7.7 64.5C5.3 60.9667 3.5 56.5667 2.3 51.3C1.1 45.9667 0.5 40.7333 0.5 35.6C0.5 29.4667 1.36667 23.7667 3.1 18.5C4.9 13.2333 7.56667 9 11.1 5.8C14.7 2.6 19.0333 0.999994 24.1 0.999994C28.3667 0.999994 31.7667 2.33333 34.3 5C36.8333 7.6 38.5333 10.7667 39.4 14.5C40.1333 10.8333 41.7667 7.66666 44.3 5C46.9 2.33333 50.3 0.999994 54.5 0.999994C59.5 0.999994 63.7667 2.56666 67.3 5.7C70.9 8.76667 73.6333 13.0667 75.5 18.6C77.4333 24.1333 78.4 30.5333 78.4 37.8C78.4 42.5333 77.7333 47.4333 76.4 52.5C75.0667 57.5 73.2 61.6667 70.8 65C68.4 68.3333 65.6667 70 62.6 70C59.8 70 57.6667 69.3 56.2 67.9C54.7333 66.5 54 64.2 54 61C54 59.5333 54.2667 56.8 54.8 52.8C55.3333 48.5333 55.6 45.4667 55.6 43.6C55.6 39.2667 54.4333 37.1 52.1 37.1C50.9 37.1 50.1333 38.0667 49.8 40C49.5333 41.9333 49.3667 45.0667 49.3 49.4C49.3 52.6667 49.2333 55.4 49.1 57.6C48.9667 59.7333 48.6667 61.7 48.2 63.5C47.6667 65.4333 46.6 67 45 68.2C43.4667 69.4 41.5333 70 39.2 70ZM120.71 35.7C126.643 38.4333 131.677 41.7333 135.81 45.6C140.01 49.4667 142.11 53.6667 142.11 58.2C142.11 62.2 141.01 65.1667 138.81 67.1C136.61 69.0333 133.91 70 130.71 70C126.11 70 121.777 67.9 117.71 63.7C113.71 59.4333 109.843 53.8667 106.11 47C106.11 51.7333 105.843 55.7 105.31 58.9C104.843 62.1 103.777 64.7667 102.11 66.9C100.443 68.9667 97.9435 70 94.6102 70C91.1435 70 88.5768 68.7 86.9102 66.1C85.3102 63.5 84.3102 60.3667 83.9102 56.7C83.5768 53.0333 83.4102 48.2333 83.4102 42.3C83.4102 38.1 83.4435 33.1333 83.5102 27.4C83.6435 21.6 83.7768 18 83.9102 16.6C84.0435 11.6 85.0768 7.6 87.0102 4.6C88.9435 1.53333 91.6768 -4.76837e-06 95.2102 -4.76837e-06C99.2768 -4.76837e-06 102.11 1.73333 103.71 5.2C105.377 8.66667 106.21 13.9667 106.21 21.1V24.1C109.61 17.9667 113.543 12.4667 118.01 7.6C122.477 2.73333 126.943 0.299997 131.41 0.299997C134.543 0.299997 137.11 1.5 139.11 3.9C141.177 6.23333 142.21 9.13333 142.21 12.6C142.21 17.2667 140.21 21.7333 136.21 26C132.277 30.2 127.11 33.4333 120.71 35.7Z" fill="black"/>
</svg>
