<svg width="483" height="155" viewBox="0 0 483 155" fill="none" xmlns="http://www.w3.org/2000/svg">
<g clip-path="url(#clip0_10_32)">
<path d="M4.5 68V5.5H17V18H29.5V30.5H42V43H29.5V30.5H17V68H4.5ZM54.5 68V30.5H42V18H54.5V5.5H67V68H54.5ZM104.5 68V55.5H92V18H104.5V5.5H129.5V18H142V55.5H129.5V68H104.5ZM104.5 55H129.5V18.5H104.5V55ZM167 68V5.5H204.5V18H217V30.5H204.5V55.5H217V68H204.5V55.5H192V43H179.5V68H167ZM179.5 30.5H204V18H179.5V30.5ZM254.5 68V18H242V5.5H279.5V18H267V68H254.5ZM304.5 68V5.5H342V18H317V30.5H342V43H317V55.5H342V68H304.5ZM392 30.5V18H367V5.5H404.5V30.5H392ZM379.5 43V30.5H392V43H379.5ZM367 68V43H379.5V55.5H404.5V68H367ZM429.5 68V18H442V5.5H467V18H479.5V68H467V43H442V68H429.5ZM442 30.5H467V18.5H442V30.5Z" fill="black"/>
<path d="M116.5 148V85.5H129V110.5H141.5V123H154V135.5H166.5V148H154V135.5H141.5V123H129V148H116.5ZM154 98V85.5H166.5V98H154ZM141.5 110.5V98H154V110.5H141.5ZM191.5 148V98H204V85.5H229V98H241.5V148H229V123H204V148H191.5ZM204 110.5H229V98.5H204V110.5ZM266.5 148V85.5H304V98H316.5V110.5H304V135.5H316.5V148H304V135.5H291.5V123H279V148H266.5ZM279 110.5H303.5V98H279V110.5ZM341.5 148V85.5H354V148H341.5ZM379 148V85.5H391.5V98H404V110.5H416.5V123H404V110.5H391.5V148H379ZM429 148V110.5H416.5V98H429V85.5H441.5V148H429ZM466.5 148V85.5H479V148H466.5Z" fill="black"/>
</g>
<defs>
<clipPath id="clip0_10_32">
<rect width="483" height="155" fill="white"/>
</clipPath>
</defs>
</svg>
